# xmcd
#
# Track frame offsets:
#  150
#  19229
#  46068
#  69257
#  89750
#  104301
#  124230
#  143476
#  165657
#  195670
#  214323
#
# Disc length: 3084 seconds
#
# Revision: 1
# Processed by: cddbd v1.5.1PL2 Copyright (c) Steve Scherf et al.
# Submitted via: Collectorz.com_Music_Collector 6.10
#
DISCID=980c0a0b
DTITLE=Slick Ballinger - Mississippi Soul
DYEAR=2006
DGENRE=Blues
TTITLE0=Sugar Mama Blues
TTITLE1=You Don't Love Me
TTITLE2=Brotherhood Blues
TTITLE3=Mississippi Soul
TTITLE4=Let's Get Down
TTITLE5=Rosalie
TTITLE6=Juke House Blues
TTITLE7=Bull Cow Blues
TTITLE8=Slow Down
TTITLE9=Sleeping Dogs Lie
TTITLE10=Talkin' 'bout Jesus (Bonus Track)
EXTD=
EXTT0=
EXTT1=
EXTT2=
EXTT3=
EXTT4=
EXTT5=
EXTT6=
EXTT7=
EXTT8=
EXTT9=
EXTT10=
PLAYORDER=
